<svg width="16.000000" height="16.000000" viewBox="0 0 16 16" fill="none" xmlns="http://www.w3.org/2000/svg" xmlns:xlink="http://www.w3.org/1999/xlink">
	<desc>
			Created with Pixso.
	</desc>
	<defs>
		<clipPath id="clip6_128">
			<rect id="teenyicons:button-solid" width="16.000000" height="16.000000" fill="white" fill-opacity="0"/>
		</clipPath>
	</defs>
	<rect id="teenyicons:button-solid" width="16.000000" height="16.000000" fill="#FFFFFF" fill-opacity="0"/>
	<g clip-path="url(#clip6_128)">
		<path id="Vector" d="M4.26 6.4C3.41 6.4 2.6 6.06 2 5.46C1.4 4.86 1.06 4.04 1.06 3.2C1.06 2.35 1.4 1.53 2 0.93C2.6 0.33 3.41 0 4.26 0L11.73 0C12.58 0 13.39 0.33 13.99 0.93C14.59 1.53 14.93 2.35 14.93 3.2C14.93 4.04 14.59 4.86 13.99 5.46C13.39 6.06 12.58 6.4 11.73 6.4L9.6 6.4L9.6 3.73C9.6 3.02 9.31 2.34 8.81 1.84C8.31 1.34 7.64 1.06 6.93 1.06C6.22 1.06 5.54 1.34 5.04 1.84C4.54 2.34 4.26 3.02 4.26 3.73L4.26 6.4Z" fill="#FFFFFF" fill-opacity="1.000000" fill-rule="nonzero"/>
		<path id="Vector" d="M6.35 1.5C5.91 1.5 5.49 1.67 5.18 1.97C4.87 2.27 4.69 2.68 4.69 3.11L4.69 8.01C4.07 8.13 3.52 8.46 3.11 8.95C2.71 9.43 2.49 10.03 2.5 10.65C2.5 11.93 3.02 13.17 3.94 14.08C4.87 14.98 6.13 15.5 7.44 15.5L8 15.5C9.45 15.5 10.85 14.93 11.88 13.92C12.92 12.91 13.5 11.54 13.5 10.11L13.5 9.19C13.5 8.58 13.25 7.99 12.8 7.56C12.36 7.12 11.76 6.88 11.13 6.88L8 6.88L8 3.11C8 2.68 7.82 2.27 7.51 1.97C7.2 1.67 6.78 1.5 6.35 1.5Z" fill="#FFFFFF" fill-opacity="1.000000" fill-rule="nonzero"/>
	</g>
</svg>
